PathFileType	4	(X/Y/Z)	Kaydara																																																																																																																									
DataRate	CameraRate	NumFrames	NumMarkers	Units	OrigDataRate	OrigDataStartFrame	OrigNumFrames																																																																																																																					
30	30	7	41	mm	30	25	148																																																																																																																					
Frame#	Time	SALE_LFHD			SALE_RFHD			SALE_LBHD			SALE_RBHD			SALE_LFTShould			SALE_RFTShould			SALE_LRRShould			SALE_RRRShould			SALE_T10			SALE_STRN			SALE_TRUN			SALE_LSHO			SALE_LUPA			SALE_LELB			SALE_LFRM			SALE_LWRA			SALE_LWRB			SALE_LFIN			SALE_RSHO			SALE_RUPA			SALE_RELB			SALE_RFRM			SALE_RWRB			SALE_RFIN			SALE_LFWT			SALE_RFWT			SALE_LBWT			SALE_RBWT			SALE_LTHI			SALE_LKNE			SALE_RWRA			SALE_LSHN			SALE_LANK			SALE_LHEE			SALE_LTOE			SALE_RTHI			SALE_RKNE			SALE_RSHN			SALE_RANK			SALE_RHEE			SALE_RTOE		
		X1	Y1	Z1	X2	Y2	Z2	X3	Y3	Z3	X4	Y4	Z4	X5	Y5	Z5	X6	Y6	Z6	X7	Y7	Z7	X8	Y8	Z8	X9	Y9	Z9	X10	Y10	Z10	X11	Y11	Z11	X12	Y12	Z12	X13	Y13	Z13	X14	Y14	Z14	X15	Y15	Z15	X16	Y16	Z16	X17	Y17	Z17	X18	Y18	Z18	X19	Y19	Z19	X20	Y20	Z20	X21	Y21	Z21	X22	Y22	Z22	X23	Y23	Z23	X24	Y24	Z24	X25	Y25	Z25	X26	Y26	Z26	X27	Y27	Z27	X28	Y28	Z28	X29	Y29	Z29	X30	Y30	Z30	X31	Y31	Z31	X32	Y32	Z32	X33	Y33	Z33	X34	Y34	Z34	X35	Y35	Z35	X36	Y36	Z36	X37	Y37	Z37	X38	Y38	Z38	X39	Y39	Z39	X40	Y40	Z40	X41	Y41	Z41
																																																																																																																												
1	0.8	231.80559	1654.58954	-2007.88498	99.28765	1652.25616	-2013.75351	233.33677	1634.72244	-2143.31253	105.65787	1630.6015	-2141.36383	243.3408	1392.96173	-2041.22635	104.1583	1391.43814	-2040.9758	237.58459	1445.28549	-2157.34787	87.71642	1450.79559	-2149.46823	162.3243	1292.63992	-2218.64548	169.91276	1320.85159	-1992.35016	167.94842	1235.55954	-1949.69757	357.22725	1416.12366	-2109.03473	399.41353	1199.15146	-2108.58002	384.39297	1088.05679	-2125.09979	411.44905	983.53218	-2088.48953	348.01586	850.32738	-2017.146	413.84178	840.29114	-2054.22577	409.8473	800.58044	-2002.74216	-3.13002	1418.9978	-2101.65604	-35.27935	1188.02368	-2159.39331	-63.25149	1088.18947	-2113.78983	-52.96542	973.63319	-2120.31982	-75.39263	835.04623	-2070.61646	-90.20018	800.46341	-2017.19147	295.74854	975.60425	-2005.7814	16.3256	974.58809	-2024.31168	248.23374	1042.29164	-2175.15289	70.48223	1046.54602	-2186.81808	297.5124	674.48975	-2168.73901	282.07321	505.99056	-2087.509	-37.34841	852.42958	-2012.15225	274.3301	309.43195	-2087.48123	268.49651	124.06291	-2134.28436	228.42735	74.42232	-2196.40045	237.68116	87.01799	-1998.59238	15.90949	723.51181	-2178.28934	34.47469	564.4212	-2070.50262	87.12896	376.48415	-2080.81268	46.39774	123.00971	-2131.54343	98.7742	63.17744	-2197.52686	57.78497	82.1794	-2009.0889
2	0.833	231.58955	1654.55124	-2007.70477	99.07804	1652.11685	-2013.49548	232.9962	1634.68048	-2143.10394	105.37554	1630.5249	-2141.1235	243.83204	1393.34778	-2041.7366	104.09805	1391.36261	-2040.96024	237.38388	1445.32013	-2157.31277	87.49939	1450.75836	-2149.38385	162.13449	1292.65884	-2218.61343	169.67384	1320.75531	-1992.28775	167.79863	1235.44228	-1949.68689	356.97529	1416.18332	-2108.94363	399.34681	1199.23805	-2108.58734	384.45297	1088.11821	-2125.08667	411.62991	983.66455	-2088.52203	348.87665	849.63982	-2018.03772	414.17511	840.3965	-2054.23035	410.25784	800.7164	-2002.76123	-3.3482	1418.91724	-2101.60828	-35.29317	1187.86385	-2159.30969	-63.37224	1088.08861	-2113.80447	-53.0745	973.52989	-2120.33722	-75.54301	834.99138	-2070.85922	-90.2828	800.38124	-2017.31506	295.6407	975.65086	-2005.72021	16.11518	974.50943	-2024.33395	248.08773	1042.27982	-2175.13123	70.37079	1046.52924	-2186.81671	297.41575	674.50157	-2168.68973	281.97977	505.95383	-2087.45163	-37.53665	852.20558	-2012.28699	274.32411	309.41776	-2087.48001	268.46869	124.02765	-2134.34601	228.41097	74.45312	-2196.41159	237.66394	87.01376	-1998.58383	15.84139	723.52898	-2178.27133	34.41188	564.40006	-2070.51804	87.10071	376.46381	-2080.80353	46.37847	123.00393	-2131.49597	98.78097	63.20683	-2197.55478	57.78012	82.15623	-2009.07776
3	0.867	231.39101	1654.54498	-2007.55081	98.8549	1652.02805	-2013.23593	232.72943	1634.65454	-2142.91397	105.0605	1630.49484	-2140.85693	243.07234	1392.97623	-2041.1705	103.81165	1391.30692	-2040.86029	237.14659	1445.38528	-2157.23541	87.28017	1450.7283	-2149.31702	161.95293	1292.67776	-2218.58627	169.55866	1320.75165	-1992.18704	167.69911	1235.38498	-1949.65332	356.75545	1416.24023	-2108.90274	399.28326	1199.35051	-2108.57925	384.45675	1088.22128	-2125.09552	411.70162	983.75618	-2088.48495	348.95737	849.86328	-2017.80457	414.33941	840.49187	-2054.16534	410.47928	800.84091	-2002.76535	-3.55103	1418.82645	-2101.52252	-35.44328	1187.83318	-2159.35822	-63.42355	1088.05321	-2113.83484	-53.1055	973.47191	-2120.37247	-75.65391	835.03326	-2070.80215	-90.30425	800.31288	-2017.34131	295.53831	975.65666	-2005.78445	16.13904	974.56711	-2024.30542	247.96574	1042.27623	-2175.13214	70.28837	1046.48598	-2186.82236	297.32075	674.50844	-2168.66272	281.91757	506.01482	-2087.44339	-37.52925	852.19772	-2012.30255	274.30017	309.48423	-2087.48245	268.48194	124.11274	-2134.28787	228.42514	74.44128	-2196.41434	237.67195	87.02047	-1998.58063	15.72069	723.53218	-2178.23776	34.34854	564.3993	-2070.48889	87.09136	376.49288	-2080.80582	46.37484	123.016	-2131.49902	98.77013	63.19808	-2197.53357	57.78593	82.17233	-2009.0834
4	0.9	230.97389	1654.46747	-2007.26563	98.62151	1651.94275	-2012.96524	232.43103	1634.72809	-2142.72949	104.71848	1630.47958	-2140.60013	243.56121	1393.40195	-2041.64536	103.566	1391.21567	-2040.73196	236.91988	1445.38956	-2157.11746	87.05112	1450.68787	-2149.17435	161.79188	1292.71088	-2218.5434	169.39529	1320.681	-1992.14081	167.62102	1235.31578	-1949.66995	356.52939	1416.25229	-2108.77716	399.11274	1199.43497	-2108.52127	384.35123	1088.26561	-2125.05005	411.63849	983.86292	-2088.47565	348.89839	849.95987	-2017.75726	414.29798	840.55664	-2054.11591	410.44674	800.93689	-2002.69089	-3.75331	1418.74969	-2101.45218	-35.56492	1187.76169	-2159.27856	-63.54382	1087.94449	-2113.76144	-53.19823	973.3535	-2120.34149	-75.63544	835.04303	-2070.80414	-90.28837	800.2047	-2017.30804	295.51498	975.69069	-2005.6958	16.08523	974.58649	-2024.32693	247.83434	1042.28477	-2175.19318	70.1849	1046.45485	-2186.81488	297.23125	674.49455	-2168.70407	281.8807	506.03889	-2087.41119	-37.53351	852.11815	-2012.20398	274.27731	309.44225	-2087.46063	268.42686	124.07137	-2134.26102	228.4148	74.50048	-2196.4151	237.67416	87.01533	-1998.57849	15.65993	723.49319	-2178.24463	34.29541	564.36852	-2070.53665	87.05371	376.4991	-2080.79376	46.38521	123.0105	-2131.39282	98.77001	63.18897	-2197.54547	57.77159	82.16867	-2009.06158
5	0.933	230.77448	1654.41681	-2007.03888	98.31155	1651.84418	-2012.74429	232.16496	1634.80225	-2142.4498	104.47974	1630.4483	-2140.33005	243.47628	1393.39386	-2041.61301	103.40227	1391.19736	-2040.68802	236.7251	1445.43304	-2157.03552	86.87751	1450.69321	-2149.07043	161.63897	1292.74872	-2218.50693	169.30489	1320.62836	-1992.10098	167.54658	1235.18753	-1949.71054	356.40053	1416.45508	-2108.79852	398.93856	1199.4664	-2108.44467	384.20689	1088.3152	-2125.02625	411.44573	983.88565	-2088.38837	348.70861	850.00595	-2017.87933	414.10858	840.63805	-2054.13086	410.13184	800.96527	-2002.62222	-3.90464	1418.66699	-2101.30737	-35.72101	1187.68463	-2159.22958	-63.6287	1087.84157	-2113.67188	-53.20792	973.28087	-2120.26535	-75.7521	835.07416	-2070.7283	-90.20922	800.07477	-2017.25204	295.44827	975.69626	-2005.92331	16.02316	974.49547	-2024.27551	247.72638	1042.28531	-2175.27557	70.07636	1046.45844	-2186.81137	297.13455	674.47929	-2168.73703	281.86007	506.06018	-2087.44949	-37.41892	852.0237	-2012.16522	274.2425	309.44006	-2087.43744	268.40956	124.10738	-2134.26041	228.40851	74.50696	-2196.41098	237.6816	87.02449	-1998.5968	15.55608	723.49762	-2178.22189	34.28334	564.41601	-2070.42755	87.12756	376.48655	-2080.79346	46.39806	123.05016	-2131.16791	98.77389	63.20031	-2197.55981	57.73623	82.1312	-2009.0303
6	0.967	230.4423	1654.41757	-2006.71265	98.02849	1651.75949	-2012.42752	231.93041	1634.82193	-2142.19482	104.23782	1630.42023	-2140.11444	243.06963	1393.23868	-2041.32538	103.29164	1391.16516	-2040.59738	236.56546	1445.48889	-2156.93344	86.68909	1450.70709	-2148.94485	161.49149	1292.83676	-2218.47595	169.25615	1320.59067	-1992.1283	167.51589	1235.10651	-1949.71008	356.21128	1416.4917	-2108.81577	398.741	1199.49646	-2108.45276	384.00547	1088.32237	-2125.04593	411.18595	983.86513	-2088.38364	348.48339	849.86	-2018.01559	413.70579	840.60219	-2054.07578	409.65908	800.9285	-2002.55234	-4.07719	1418.65753	-2101.18591	-35.82441	1187.68074	-2159.09531	-63.67676	1087.78938	-2113.56613	-53.25968	973.25562	-2120.20905	-75.68325	835.01076	-2070.71503	-90.09401	800.00435	-2017.22809	295.43098	975.72792	-2005.91431	16.03091	974.48517	-2024.28238	247.62592	1042.3053	-2175.3511	69.96272	1046.46332	-2186.83456	297.07298	674.50455	-2168.81485	281.8252	506.04713	-2087.49283	-37.32341	851.98181	-2012.12433	274.23643	309.45663	-2087.46246	268.37494	124.14786	-2134.27353	228.39725	74.51674	-2196.4209	237.68089	87.01851	-1998.58948	15.46705	723.44704	-2178.08014	34.30648	564.43085	-2070.24475	87.26488	376.4743	-2080.67047	46.4559	123.12059	-2130.58197	98.76277	63.20221	-2197.58163	57.69164	82.13215	-2009.01642
7	1	230.37674	1654.41833	-2006.41174	97.88996	1651.61697	-2012.07916	231.72266	1634.92096	-2141.86081	104.06969	1630.43945	-2139.81537	242.17632	1392.74734	-2040.61523	103.27483	1391.11099	-2040.50629	236.42866	1445.50201	-2156.86646	86.57368	1450.75607	-2148.83423	161.35838	1292.87628	-2218.38821	169.21566	1320.54718	-1992.05795	167.47751	1235.03311	-1949.71588	356.13617	1416.418	-2108.63449	398.52459	1199.47769	-2108.51715	383.81176	1088.34206	-2125.13641	410.84427	983.79776	-2088.45856	348.27023	849.61876	-2018.36807	413.21987	840.50446	-2054.07959	409.18941	800.94406	-2002.66983	-4.19771	1418.66394	-2101.03607	-35.95078	1187.64175	-2159.00467	-63.73242	1087.77573	-2113.52081	-53.29761	973.25706	-2120.2005	-75.7268	834.99199	-2070.62225	-90.05027	799.95071	-2017.19055	295.38952	975.72601	-2005.98694	15.98757	974.54445	-2024.30176	247.50181	1042.31262	-2175.42603	69.90169	1046.46774	-2186.84769	297.00058	674.46274	-2168.87085	281.78064	506.07822	-2087.47955	-37.28297	852.0015	-2012.07001	274.24078	309.44967	-2087.4585	268.37042	124.15602	-2134.24072	228.40656	74.49969	-2196.41083	237.68984	87.01427	-1998.57086	15.38593	723.35587	-2177.86835	34.3633	564.42932	-2069.85641	87.48689	376.46187	-2080.57159	46.48612	123.11174	-2130.28366	98.73882	63.22419	-2197.58621	57.63861	82.11514	-2009.0416
